<svg width="1000" height="1000" viewBox="0 0 1000 1000" fill="none" xmlns="http://www.w3.org/2000/svg">
<g clip-path="url(#clip0_5_4)">
<mask id="mask0_5_4" style="mask-type:luminance" maskUnits="userSpaceOnUse" x="0" y="0" width="1000" height="1000">
<path d="M0 1.66893e-05H1000V1000H0V1.66893e-05Z" fill="white"/>
</mask>
<g mask="url(#mask0_5_4)">
<path d="M412.474 590.863C406.879 594.642 405.676 599.071 405.676 604.088C405.679 628.155 405.594 652.223 405.656 676.29C405.667 680.714 406.612 684.943 411.895 687.871H385.266C391.863 684.278 391.707 678.469 391.684 672.556C391.598 650.518 391.649 628.48 390.543 606.063C378.311 633.275 366.079 660.488 353.658 688.12C340.976 660.21 328.433 632.602 315.889 604.993C315.647 604.978 315.404 604.962 315.161 604.947C315.161 606.63 315.162 608.314 315.161 609.997C315.149 631.29 315.261 652.583 315.043 673.873C314.982 679.79 315.673 684.895 321.576 688.09H301.749C309.23 684.858 309.744 679.281 309.712 673.211C309.598 650.684 309.648 628.156 309.676 605.629C309.684 600.085 309.136 594.825 302.446 590.831C310.192 590.831 316.434 590.606 322.634 591.011C323.965 591.098 325.621 593.254 326.324 594.818C334.739 613.504 342.999 632.259 351.307 650.992C353.347 655.593 355.415 660.18 357.861 665.647C362.136 656.239 366.04 647.608 369.974 638.99C376.757 624.131 383.61 609.303 390.304 594.403C391.453 591.844 392.786 590.62 395.78 590.786C400.822 591.065 405.889 590.863 412.474 590.863Z" fill="#B58E53"/>
</g>
<mask id="mask1_5_4" style="mask-type:luminance" maskUnits="userSpaceOnUse" x="0" y="0" width="1000" height="1000">
<path d="M0 1.66893e-05H1000V1000H0V1.66893e-05Z" fill="white"/>
</mask>
<g mask="url(#mask1_5_4)">
<path d="M741.053 638.014C749.624 638.637 757.898 639.384 765.173 633.856C772.119 628.575 776.425 621.985 775.249 612.896C774.197 604.762 768.981 599.597 761.517 597.752C754.953 596.13 747.96 596.245 741.053 595.584V638.014ZM767.286 642.132C777.324 657.291 785.107 675.109 800.192 688.056C794.996 688.056 789.687 688.831 784.764 687.788C781.384 687.071 777.615 684.47 775.623 681.6C768.784 671.744 762.608 661.428 756.266 651.232C751.669 643.843 750.591 643.223 741.146 643.825C741.058 645.223 740.882 646.692 740.887 648.16C740.918 657.254 741.03 666.347 741.031 675.441C741.032 680.288 742.022 684.614 746.475 688.223H733.931H719.846C726.549 684.516 727.082 679.056 727.094 673.436C727.143 650.778 727.191 628.118 727.146 605.46C727.135 600.048 727.033 594.525 720.98 591.793C736.192 591.793 751.071 591.079 765.836 592.064C774.547 592.645 782.176 597.343 787.265 605.102C792.597 613.23 792.128 623.417 784.911 629.998C779.919 634.553 773.72 637.785 767.286 642.132Z" fill="#B58E53"/>
</g>
<mask id="mask2_5_4" style="mask-type:luminance" maskUnits="userSpaceOnUse" x="0" y="0" width="1000" height="1000">
<path d="M0 1.66893e-05H1000V1000H0V1.66893e-05Z" fill="white"/>
</mask>
<g mask="url(#mask2_5_4)">
<path d="M497.689 497.548C500.895 488.364 505.99 480.614 512.327 473.578C513.263 472.539 513.691 470.828 513.885 469.365C516.165 452.279 508.299 439.244 497.249 427.168C490.118 435.924 483.467 444.515 481.669 455.551C480.619 461.994 478.943 469.093 483.77 474.647C489.72 481.49 494.618 488.765 497.689 497.548ZM501.711 525.956C529.988 524.378 557.37 488.094 549.805 462.229C519.701 463.808 496.842 494.097 501.711 525.956ZM445.357 462.057C440.114 494.721 462.933 519.194 493.587 525.835C497.84 489.869 475.334 465.516 445.357 462.057ZM474.716 466.195C474.594 447.927 483.077 434.261 494.089 421.687C496.573 418.85 498.329 419.128 500.767 421.872C511.889 434.387 520.318 448.047 520.092 465.944C521.22 465.576 521.959 465.48 522.538 465.124C531.378 459.685 541.145 457.177 551.294 455.64C554.809 455.107 555.85 456.247 556.247 459.602C560.199 492.946 542.008 520.291 509.268 530.49C500.586 533.195 492.328 532.895 484.019 529.482C467.995 522.898 453.831 514.04 445.426 498.105C439.096 486.103 437.739 473.243 438.769 459.932C439.077 455.946 441.015 454.116 444.741 455.263C453.226 457.876 461.616 460.803 470.015 463.69C471.417 464.172 472.67 465.088 474.716 466.195Z" fill="#C9A475"/>
</g>
<mask id="mask3_5_4" style="mask-type:luminance" maskUnits="userSpaceOnUse" x="0" y="0" width="1000" height="1000">
<path d="M0 1.66893e-05H1000V1000H0V1.66893e-05Z" fill="white"/>
</mask>
<g mask="url(#mask3_5_4)">
<path d="M451.421 596.039V635.23C465.138 637.846 475.501 636.012 484.432 629.263V648.439C480.275 643.232 475.26 640.86 469.09 641.002C463.274 641.137 457.453 641.031 451.397 641.031V683.151C469.034 682.776 487.608 686.991 500.426 669.13C499.141 675.281 497.856 681.431 496.489 687.975H430.775C436.757 684.703 437.164 679.517 437.149 674.031C437.089 650.742 437.121 627.453 437.136 604.164C437.139 599.104 436.476 594.354 430.397 591.05H494.264V606.76C488.771 598.039 481.013 595.797 472.059 596.007C465.304 596.165 458.542 596.039 451.421 596.039Z" fill="#B58E53"/>
</g>
<mask id="mask4_5_4" style="mask-type:luminance" maskUnits="userSpaceOnUse" x="0" y="0" width="1000" height="1000">
<path d="M0 1.66893e-05H1000V1000H0V1.66893e-05Z" fill="white"/>
</mask>
<g mask="url(#mask4_5_4)">
<path d="M874.93 607.61C869.038 596.39 859.779 595.735 850.084 595.987C844.413 596.134 838.735 596.014 832.758 596.014V635.966C844.061 634.539 856.116 639.471 865.811 628.554V648.754C861.614 642.945 856.545 640.779 850.33 641.001C844.653 641.203 838.964 641.043 832.858 641.043V683.272C850.376 682.594 869.098 686.965 881.788 668.952C880.562 674.594 879.435 680.262 878.012 685.855C877.768 686.811 876.263 688.123 875.332 688.129C854.599 688.259 833.864 688.229 812.833 687.882C817.836 685.259 818.581 680.827 818.581 676.063C818.583 651.855 818.545 627.647 818.601 603.44C818.613 598.527 817.48 594.308 811.859 591.189H874.93V607.61Z" fill="#B58E53"/>
</g>
<mask id="mask5_5_4" style="mask-type:luminance" maskUnits="userSpaceOnUse" x="0" y="0" width="1000" height="1000">
<path d="M0 1.66893e-05H1000V1000H0V1.66893e-05Z" fill="white"/>
</mask>
<g mask="url(#mask5_5_4)">
<path d="M601.845 663.277C601.845 668.172 601.404 672.203 601.955 676.093C602.667 681.117 600.187 683.255 596.096 684.989C576.225 693.406 556.545 694.453 537.642 682.734C519.614 671.558 511.048 649.943 515.567 628.914C519.969 608.431 537.03 592.301 557.586 589.021C572.083 586.708 585.822 589.314 598.994 595.324C600.343 595.939 601.677 598.118 601.78 599.654C602.125 604.832 601.911 610.046 601.911 615.656C598.324 611.119 595.575 606.427 591.719 602.971C573.75 586.87 546.516 591.774 535.845 613.689C526.948 631.96 527.317 651.04 537.848 668.665C551.409 691.363 582.825 691.282 598.163 669.087C599.285 667.464 600.281 665.754 601.845 663.277Z" fill="#B58E53"/>
</g>
<mask id="mask6_5_4" style="mask-type:luminance" maskUnits="userSpaceOnUse" x="0" y="0" width="1000" height="1000">
<path d="M0 1.66893e-05H1000V1000H0V1.66893e-05Z" fill="white"/>
</mask>
<g mask="url(#mask6_5_4)">
<path d="M654.725 607.415C649.228 621.908 644.168 635.246 638.988 648.905H670.91C665.581 635.244 660.392 621.943 654.725 607.415ZM703.89 688.129H677.068C682.709 682.945 683.167 680.836 680.421 673.789C678.35 668.475 676.193 663.192 674.279 657.821C673.383 655.307 672.119 654.181 669.277 654.228C659.56 654.387 649.835 654.141 640.122 654.395C638.667 654.432 636.578 656.01 635.953 657.401C633.627 662.595 631.72 667.982 629.783 673.344C627.108 680.743 627.832 683.197 634.11 688.133H612.705C620.43 683.782 623.004 676.958 625.596 670.017C635.084 644.613 644.746 619.274 654.273 593.885C655.167 591.503 656.103 590.11 659.092 590.08C662.248 590.047 663.251 591.523 664.242 594.056C674.416 620.026 684.559 646.008 695.032 671.857C697.345 677.565 700.927 682.759 703.89 688.129Z" fill="#B58E53"/>
</g>
<mask id="mask7_5_4" style="mask-type:luminance" maskUnits="userSpaceOnUse" x="0" y="0" width="1000" height="1000">
<path d="M0 1.66893e-05H1000V1000H0V1.66893e-05Z" fill="white"/>
</mask>
<g mask="url(#mask7_5_4)">
<path d="M199.973 590.912H226.634C218.69 595.645 219.957 602.698 219.937 609.317C219.891 624.285 219.768 639.255 220.006 654.219C220.171 664.623 222.782 674.14 232.317 680.192C248.545 690.494 270.213 681.082 273.667 662.128C274.437 657.907 274.643 653.542 274.683 649.241C274.816 634.891 274.699 620.54 274.799 606.191C274.84 600.397 275.104 594.641 268.983 591.057H287.444C279.053 595 280.181 601.592 280.179 607.802C280.173 623.232 280.352 638.666 280.13 654.092C279.786 678.059 265.371 691.439 241.417 690.357C219.462 689.366 206.37 676.017 206.109 654.025C205.914 637.67 206.033 621.312 206.024 604.955C206.021 599.509 205.41 594.357 199.973 590.912Z" fill="#B58E53"/>
</g>
<mask id="mask8_5_4" style="mask-type:luminance" maskUnits="userSpaceOnUse" x="0" y="0" width="1000" height="1000">
<path d="M0 1.66893e-05H1000V1000H0V1.66893e-05Z" fill="white"/>
</mask>
<g mask="url(#mask8_5_4)">
<path d="M186.612 669.144C185.385 675.399 184.158 681.653 182.899 688.068H118.462C123.848 684.534 124.864 679.858 124.844 674.569C124.757 650.807 124.766 627.045 124.841 603.283C124.857 598.333 123.5 594.232 118.212 591.123H145.126C137.861 595.749 138.758 602.649 138.765 609.318C138.789 632.154 138.769 654.99 138.766 677.825C138.765 679.472 138.766 681.119 138.766 683.087C156.447 683.178 174.449 686.657 186.612 669.144Z" fill="#B58E53"/>
</g>
<mask id="mask9_5_4" style="mask-type:luminance" maskUnits="userSpaceOnUse" x="0" y="0" width="1000" height="1000">
<path d="M0 1.66893e-05H1000V1000H0V1.66893e-05Z" fill="white"/>
</mask>
<g mask="url(#mask9_5_4)">
<path d="M569.357 458.488C567.926 458.488 566.711 457.39 566.591 455.939C566.465 454.41 567.601 453.067 569.131 452.941L633.02 447.66C634.559 447.531 635.891 448.67 636.017 450.199C636.143 451.727 635.006 453.07 633.477 453.196L569.588 458.478C569.51 458.485 569.432 458.488 569.357 458.488Z" fill="#C9A475"/>
</g>
<mask id="mask10_5_4" style="mask-type:luminance" maskUnits="userSpaceOnUse" x="0" y="0" width="1000" height="1000">
<path d="M0 1.66893e-05H1000V1000H0V1.66893e-05Z" fill="white"/>
</mask>
<g mask="url(#mask10_5_4)">
<path d="M560.599 434.658C559.611 434.658 558.654 434.129 558.152 433.199C557.423 431.849 557.927 430.164 559.277 429.435L615.692 398.988C617.044 398.257 618.728 398.764 619.456 400.113C620.184 401.463 619.681 403.148 618.331 403.877L561.916 434.325C561.496 434.551 561.045 434.658 560.599 434.658Z" fill="#C9A475"/>
</g>
<mask id="mask11_5_4" style="mask-type:luminance" maskUnits="userSpaceOnUse" x="0" y="0" width="1000" height="1000">
<path d="M0 7.77245e-05H1000V1000H0V7.77245e-05Z" fill="white"/>
</mask>
<g mask="url(#mask11_5_4)">
<path d="M544.119 415.149C543.453 415.149 542.785 414.912 542.254 414.43C541.118 413.399 541.031 411.643 542.061 410.506L592.301 355.078C593.331 353.942 595.088 353.855 596.224 354.885C597.361 355.916 597.448 357.672 596.417 358.809L546.178 414.237C545.63 414.842 544.875 415.149 544.119 415.149Z" fill="#C9A475"/>
</g>
<mask id="mask12_5_4" style="mask-type:luminance" maskUnits="userSpaceOnUse" x="0" y="0" width="1000" height="1000">
<path d="M0 1.66893e-05H1000V1000H0V1.66893e-05Z" fill="white"/>
</mask>
<g mask="url(#mask12_5_4)">
<path d="M522.2 403.703C521.865 403.703 521.523 403.642 521.191 403.511C519.761 402.954 519.056 401.344 519.613 399.914L544.401 336.417C544.959 334.988 546.568 334.28 547.998 334.839C549.428 335.397 550.135 337.008 549.576 338.437L524.789 401.934C524.361 403.032 523.311 403.703 522.2 403.703Z" fill="#C9A475"/>
</g>
<mask id="mask13_5_4" style="mask-type:luminance" maskUnits="userSpaceOnUse" x="0" y="0" width="1000" height="1000">
<path d="M0 1.66893e-05H1000V1000H0V1.66893e-05Z" fill="white"/>
</mask>
<g mask="url(#mask13_5_4)">
<path d="M497.831 396.562H497.822C496.288 396.557 495.048 395.31 495.053 393.776L495.298 311.351C495.302 309.819 496.545 308.58 498.076 308.58H498.083C499.618 308.585 500.857 309.833 500.854 311.366L500.608 393.792C500.604 395.324 499.361 396.562 497.831 396.562Z" fill="#C9A475"/>
</g>
<mask id="mask14_5_4" style="mask-type:luminance" maskUnits="userSpaceOnUse" x="0" y="0" width="1000" height="1000">
<path d="M0 1.66893e-05H1000V1000H0V1.66893e-05Z" fill="white"/>
</mask>
<g mask="url(#mask14_5_4)">
<path d="M425.876 458.658C425.799 458.658 425.721 458.655 425.644 458.649L361.755 453.366C360.226 453.24 359.089 451.898 359.216 450.369C359.342 448.84 360.689 447.702 362.213 447.83L426.102 453.112C427.631 453.238 428.768 454.58 428.641 456.109C428.521 457.561 427.307 458.658 425.876 458.658Z" fill="#C9A475"/>
</g>
<mask id="mask15_5_4" style="mask-type:luminance" maskUnits="userSpaceOnUse" x="0" y="0" width="1000" height="1000">
<path d="M0 1.66893e-05H1000V1000H0V1.66893e-05Z" fill="white"/>
</mask>
<g mask="url(#mask15_5_4)">
<path d="M434.633 434.829C434.188 434.829 433.736 434.721 433.317 434.495L376.902 404.047C375.552 403.318 375.048 401.633 375.777 400.283C376.506 398.932 378.19 398.429 379.54 399.158L435.955 429.605C437.305 430.334 437.808 432.019 437.081 433.369C436.578 434.3 435.621 434.829 434.633 434.829Z" fill="#C9A475"/>
</g>
<mask id="mask16_5_4" style="mask-type:luminance" maskUnits="userSpaceOnUse" x="0" y="0" width="1000" height="1000">
<path d="M0 -4.43459e-05H1000V1000H0V-4.43459e-05Z" fill="white"/>
</mask>
<g mask="url(#mask16_5_4)">
<path d="M451.114 415.32C450.357 415.32 449.603 415.012 449.055 414.407L398.815 358.98C397.784 357.843 397.87 356.086 399.007 355.056C400.144 354.025 401.901 354.112 402.931 355.248L453.171 410.676C454.201 411.813 454.115 413.57 452.979 414.6C452.446 415.082 451.779 415.32 451.114 415.32Z" fill="#C9A475"/>
</g>
<mask id="mask17_5_4" style="mask-type:luminance" maskUnits="userSpaceOnUse" x="0" y="0" width="1000" height="1000">
<path d="M0 3.8147e-05H1000V1000H0V3.8147e-05Z" fill="white"/>
</mask>
<g mask="url(#mask17_5_4)">
<path d="M473.032 403.873C471.921 403.873 470.872 403.202 470.444 402.105L445.657 338.608C445.098 337.178 445.805 335.568 447.234 335.01C448.664 334.452 450.273 335.159 450.831 336.587L475.618 400.085C476.176 401.514 475.47 403.124 474.041 403.682C473.709 403.812 473.368 403.873 473.032 403.873Z" fill="#C9A475"/>
</g>
</g>
<defs>
<clipPath id="clip0_5_4">
<rect width="1000" height="1000" fill="white"/>
</clipPath>
</defs>
</svg>
