<svg version="1.1" id="Layer_1" xmlns="http://www.w3.org/2000/svg" xmlns:xlink="http://www.w3.org/1999/xlink" x="0px" y="0px"
	 width="100%" viewBox="0 0 240 192" enable-background="new 0 0 240 192" xml:space="preserve">
<path fill="#000000" opacity="1.000000" stroke="none" 
	d="
M241.000000,126.625000 
	C231.292526,129.503479 221.256561,129.038406 211.403259,130.245483 
	C205.154388,131.010986 198.854675,131.359375 192.579086,131.910004 
	C189.938309,132.141708 186.541794,132.916382 186.200928,129.251266 
	C185.883636,125.839523 189.322510,125.996277 191.726700,125.788422 
	C206.257935,124.532112 220.796692,123.362534 235.327988,122.106850 
	C237.263260,121.939613 238.956375,122.210159 240.700760,123.778877 
	C241.000000,124.750000 241.000000,125.500000 241.000000,126.625000 
z"/>
<path fill="#000000" opacity="1.000000" stroke="none" 
	d="
M92.744583,128.013245 
	C100.418266,129.284836 107.139412,132.092850 114.421532,135.707657 
	C115.280144,125.093689 119.049271,116.243042 124.988609,108.213203 
	C132.159012,98.518990 133.088852,98.503723 140.592438,108.068375 
	C146.819077,116.005333 150.297775,125.011917 151.514725,135.699524 
	C157.754410,132.934967 163.459946,130.393204 169.645035,129.208527 
	C178.387573,127.533997 179.056488,128.106125 179.352295,136.899139 
	C180.355484,166.721161 159.863708,183.626968 136.318619,188.930023 
	C134.423035,189.356964 132.245636,189.444717 130.383163,188.969330 
	C103.837448,182.193634 84.884666,164.770676 86.763206,134.272003 
	C86.978226,130.781158 87.397263,127.344917 92.744583,128.013245 
M92.560623,140.526810 
	C92.724808,141.678925 92.981667,142.826431 93.039406,143.983856 
	C94.058144,164.406448 110.028801,176.745316 126.279945,181.869659 
	C127.204056,182.161041 128.183182,182.595459 129.111389,181.817657 
	C133.387512,159.598526 113.557091,133.770844 93.377594,135.401077 
	C93.193382,135.999664 92.942894,136.619171 92.819679,137.263046 
	C92.664246,138.075317 92.612648,138.907486 92.560623,140.526810 
M166.781448,163.259552 
	C171.926453,154.473465 174.002640,145.073486 173.242355,134.848099 
	C145.918198,138.225800 133.478699,163.080276 137.464172,182.683075 
	C149.251617,179.588028 159.256851,173.992813 166.781448,163.259552 
M121.964729,142.066605 
	C126.109138,147.000946 130.033615,152.092804 133.190491,159.423920 
	C136.284409,152.070663 140.397049,147.108093 144.060867,141.833771 
	C145.195038,140.201050 145.571136,137.688263 145.477249,135.615402 
	C144.998154,125.038933 140.696564,116.171356 132.880463,108.500244 
	C123.950966,118.005043 119.162102,128.422821 121.964729,142.066605 
z"/>
<path fill="#000000" opacity="1.000000" stroke="none" 
	d="
M132.249542,14.592588 
	C135.638046,14.473282 136.151596,16.618229 136.156555,18.887751 
	C136.200562,39.017891 136.197525,59.148205 136.159027,79.278366 
	C136.154755,81.511185 135.779831,83.995781 132.843582,83.860970 
	C130.326309,83.745399 129.893753,81.475227 129.890930,79.388458 
	C129.863800,59.258442 129.864624,39.128361 129.884323,18.998327 
	C129.885986,17.306305 130.168716,15.654618 132.249542,14.592588 
z"/>
<path fill="#000000" opacity="1.000000" stroke="none" 
	d="
M84.191483,85.781601 
	C76.801865,77.416443 69.640007,69.323578 62.487831,61.222176 
	C61.057854,59.602406 59.619610,57.986282 58.268406,56.301723 
	C57.102329,54.847965 55.823090,53.131561 57.686840,51.503166 
	C59.653248,49.785080 61.410072,51.041908 62.840782,52.621773 
	C66.969856,57.181313 71.084091,61.754673 75.166916,66.355644 
	C82.560944,74.688042 89.929909,83.042694 97.304802,91.392059 
	C98.880775,93.176262 100.822800,95.302330 98.480690,97.388138 
	C95.964325,99.629143 94.303543,96.900375 92.783783,95.301041 
	C89.921623,92.289024 87.201714,89.141861 84.191483,85.781601 
z"/>
<path fill="#000000" opacity="1.000000" stroke="none" 
	d="
M169.575623,90.729462 
	C180.534409,78.368484 191.245071,66.279037 201.956818,54.190552 
	C202.398529,53.692062 202.855667,53.207230 203.296402,52.707901 
	C204.721695,51.093159 206.480133,49.736202 208.421677,51.420536 
	C210.385712,53.124401 209.224930,55.069054 207.824112,56.664021 
	C202.989944,62.168232 198.140884,67.659492 193.273758,73.134598 
	C186.747208,80.476479 180.245300,87.841377 173.622604,95.095787 
	C172.182541,96.673210 170.560989,99.567101 167.962280,97.316666 
	C165.180649,94.907837 167.862305,92.913551 169.575623,90.729462 
z"/>
<path fill="#000000" opacity="1.000000" stroke="none" 
	d="
M167.899811,37.162682 
	C169.403625,35.372128 170.991592,35.015694 172.447159,36.385544 
	C173.888199,37.741718 173.206726,39.478481 172.618439,41.052998 
	C169.240128,50.094688 165.860382,59.135895 162.453842,68.166969 
	C160.339081,73.773384 158.204605,79.372772 156.019012,84.951813 
	C155.261978,86.884254 154.170334,88.913414 151.667358,87.881645 
	C149.253448,86.886597 149.718918,84.732338 150.480423,82.733162 
	C156.226242,67.648643 161.968704,52.562859 167.899811,37.162682 
z"/>
<path fill="#000000" opacity="1.000000" stroke="none" 
	d="
M227.655121,84.356613 
	C230.459763,87.120491 228.798340,88.894035 226.605804,90.069717 
	C212.563477,97.599480 198.461868,105.018799 184.367615,112.451424 
	C182.635437,113.364883 180.764969,113.758087 179.505524,111.801483 
	C178.112839,109.637848 179.715012,108.302185 181.350052,107.431763 
	C195.999603,99.633072 210.684692,91.900970 225.384384,84.197128 
	C225.895218,83.929413 226.668686,84.162857 227.655121,84.356613 
z"/>
<path fill="#000000" opacity="1.000000" stroke="none" 
	d="
M99.924042,40.276310 
	C105.125198,54.158134 110.172668,67.692642 115.221237,81.226746 
	C115.742195,82.623329 116.410103,83.982574 116.183495,85.549561 
	C116.030167,86.609749 115.550598,87.471458 114.548424,87.874054 
	C113.329391,88.363762 112.145859,88.055580 111.472183,86.969505 
	C110.604507,85.570648 109.847527,84.070648 109.270660,82.528976 
	C104.207497,68.997887 99.157265,55.461578 94.209526,41.888069 
	C93.489540,39.912865 91.446152,37.222923 94.745758,35.905415 
	C98.095230,34.567993 98.834778,37.630444 99.924042,40.276310 
z"/>
<path fill="#000000" opacity="1.000000" stroke="none" 
	d="
M69.734978,106.338837 
	C60.310951,101.322952 51.216778,96.471443 42.127750,91.610306 
	C40.956417,90.983841 39.775345,90.363525 38.663467,89.640839 
	C37.124458,88.640526 36.169769,87.282181 37.250324,85.460114 
	C38.290607,83.705963 39.885551,83.634644 41.578373,84.530502 
	C45.838219,86.784843 50.096088,89.043022 54.345543,91.316864 
	C63.872036,96.414406 73.402603,101.504509 82.908173,106.640846 
	C84.870819,107.701378 87.852249,108.564774 86.266891,111.622993 
	C84.707855,114.630447 82.244293,112.819923 80.230446,111.818138 
	C76.807632,110.115471 73.450912,108.279930 69.734978,106.338837 
z"/>
<path fill="#000000" opacity="1.000000" stroke="none" 
	d="
M41.180382,129.175171 
	C36.911514,128.832642 33.107624,128.544113 29.308960,128.198273 
	C27.228357,128.008850 25.003948,127.495277 25.101234,124.941772 
	C25.210367,122.077324 27.576881,121.740784 29.878338,121.930946 
	C45.077965,123.186882 60.274876,124.475822 75.472061,125.761246 
	C77.747505,125.953705 80.194962,126.485771 79.893166,129.303940 
	C79.596588,132.073273 77.225319,132.072571 74.862785,131.868607 
	C63.796864,130.913315 52.720299,130.081299 41.180382,129.175171 
z"/>
</svg>