<?xml version="1.0" encoding="UTF-8"?>
<svg version="1.1" xmlns="http://www.w3.org/2000/svg" width="500" height="500">
<path d="M0 0 C7.02738568 3.14343273 10.79773258 9.60861029 14.03125 16.35546875 C15.55162247 20.50584036 15.89715248 24.60560616 16 29 C16.83402344 28.65066406 17.66804688 28.30132812 18.52734375 27.94140625 C25.13385733 25.27004394 30.8733449 23.36237229 38 23 C41.57802077 28.36703115 40.45206997 34.94567855 39.53515625 41.140625 C38.01613212 48.15150559 35.50612431 53.43741593 31 59 C30.54367188 59.60328125 30.08734375 60.2065625 29.6171875 60.828125 C23.52980435 67.90351274 12.43091357 73.60214372 3.25 75.25 C-7.243971 75.50985071 -18.04530012 69.27905899 -25.75 62.625 C-33.98908696 53.01273188 -38.12416796 45.2449028 -38.1875 32.3125 C-38.19974609 31.63638672 -38.21199219 30.96027344 -38.22460938 30.26367188 C-38.2298516 28.50752573 -38.12232123 26.75188878 -38 25 C-36 23 -36 23 -33.96875 22.8828125 C-27.43048842 23.52422424 -21.96485005 25.27139838 -16 28 C-15.731875 27.04480469 -15.46375 26.08960938 -15.1875 25.10546875 C-12.32580884 15.47194161 -8.72577907 5.81718605 0 0 Z M0 8 C-5.72336029 14.63094817 -9.42569653 21.52658261 -9.125 30.5 C-8.22945105 36.28504031 -4.51412873 40.50386301 -1 45 C-0.34 45.99 0.32 46.98 1 48 C8.72586801 38.51505097 8.72586801 38.51505097 11 27 C9.74979856 19.87729271 6.95343279 14.2845815 2 9 C1.34 8.67 0.68 8.34 0 8 Z M-32 30 C-32.67470889 39.85824658 -31.15379918 47.47822171 -24.8125 55.25 C-18.60798812 61.79847202 -11.66553552 65.66460745 -3 68 C-2.34031503 56.30891644 -3.60933279 48.59545875 -11.375 39.625 C-15.53375775 35.26788045 -19.21800836 31.92733055 -25 30 C-27.33299825 29.96045766 -29.66708189 29.95598268 -32 30 Z M12 41 C6.30555086 48.11436373 3.24034401 56.88412809 4 66 C4.33 66.66 4.66 67.32 5 68 C15.20811825 65.24887593 24.15448011 60.04086885 30 51 C33.2311947 43.99270498 34.51149721 37.67245819 34 30 C25.35439156 28.88443762 17.56236169 35.04815127 12 41 Z " fill="#D9D9D9" transform="translate(160,264)"/>
<path d="M0 0 C12.50596984 -0.1250597 12.50596984 -0.1250597 15.17578125 0.55078125 C17.36637271 1.09022026 18.75414084 0.75152408 20.9375 0.25 C24.24606578 -0.18289646 24.88832954 -0.06048816 28 1.625 C31.09852288 6.85375736 30.39091254 12.06681629 30 18 C28.02 18 26.04 18 24 18 C23.67 14.37 23.34 10.74 23 7 C21.68 7 20.36 7 19 7 C18.67 10.63 18.34 14.26 18 18 C16.02 18 14.04 18 12 18 C11.67 14.37 11.34 10.74 11 7 C9.68 7 8.36 7 7 7 C6.67 10.63 6.34 14.26 6 18 C4.02 18 2.04 18 0 18 C0 12.06 0 6.12 0 0 Z " fill="#D7D7D7" transform="translate(302,277)"/>
<path d="M0 0 C1.32 0.66 2.64 1.32 4 2 C4.05057624 9.79619588 4.08568114 17.5923497 4.10986328 25.38867188 C4.11994089 28.04265931 4.13360313 30.6966356 4.15087891 33.35058594 C4.17504992 37.15823107 4.18646535 40.96572984 4.1953125 44.7734375 C4.20563507 45.96617279 4.21595764 47.15890808 4.22659302 48.38778687 C4.22674408 49.48877716 4.22689514 50.58976746 4.22705078 51.72412109 C4.231492 52.69674896 4.23593323 53.66937683 4.24050903 54.67147827 C4 57 4 57 2 59 C-0.125 58.625 -0.125 58.625 -2 58 C-2.0462955 50.73307672 -2.08185493 43.46618512 -2.10362434 36.19914436 C-2.11407142 32.82493006 -2.12824725 29.45081648 -2.15087891 26.07666016 C-2.17504885 22.19951682 -2.18646511 18.32251723 -2.1953125 14.4453125 C-2.20563507 13.23070343 -2.21595764 12.01609436 -2.22659302 10.76467896 C-2.22674408 9.64366791 -2.22689514 8.52265686 -2.22705078 7.36767578 C-2.231492 6.37728302 -2.23593323 5.38689026 -2.24050903 4.3664856 C-2 2 -2 2 0 0 Z " fill="#DADADA" transform="translate(160,192)"/>
<path d="M0 0 C4.30539561 2.27381148 7.35079683 5.22401979 10.5625 8.8125 C11.07627197 9.37783447 11.59004395 9.94316895 12.11938477 10.52563477 C17.41339859 16.38580167 22.57856257 22.3636681 27.6550293 28.41308594 C28.57734708 29.50131713 29.51461541 30.57700083 30.46411133 31.64160156 C31.69853028 33.04730559 32.8559419 34.51982264 34 36 C33.8125 38.875 33.8125 38.875 33 41 C28.366045 40.15346566 26.19108903 37.34632767 23.1875 33.9375 C22.65125 33.34187256 22.115 32.74624512 21.5625 32.13256836 C20.03297543 30.42921314 18.51493674 28.71632608 17 27 C16.36707031 26.29101562 15.73414062 25.58203125 15.08203125 24.8515625 C14.02435215 23.65547107 12.97616412 22.45092161 11.9375 21.23828125 C10.27346809 19.3159218 8.58097194 17.42790642 6.875 15.54296875 C5.74967325 14.27893665 4.62467562 13.01461147 3.5 11.75 C2.94634766 11.14679932 2.39269531 10.54359863 1.82226562 9.92211914 C0.28125 8.171875 0.28125 8.171875 -2 5 C-1.5193634 1.5193634 -1.5193634 1.5193634 0 0 Z " fill="#D4D4D4" transform="translate(99,222)"/>
<path d="M0 0 C0.99 0.66 1.98 1.32 3 2 C2.47403544 6.16875613 0.19493533 8.26819527 -2.625 11.25 C-3.54356762 12.23251337 -4.46153402 13.21558915 -5.37890625 14.19921875 C-6.24386719 15.12347656 -7.10882813 16.04773438 -8 17 C-9.19520717 18.34736907 -10.3837564 19.70070445 -11.5625 21.0625 C-14.94791138 24.9613387 -18.41251505 28.78569595 -21.88671875 32.60546875 C-23.35746512 34.27195216 -24.76829762 35.99244317 -26.12890625 37.75 C-28.10886574 40.13091162 -28.98115759 40.6765526 -32 41 C-32.82421875 38.90625 -32.82421875 38.90625 -33 36 C-31.35318217 33.58018604 -29.78473043 31.62430675 -27.8125 29.5 C-27.27020752 28.89269043 -26.72791504 28.28538086 -26.16918945 27.65966797 C-24.46235759 25.75760783 -22.73425352 23.87706289 -21 22 C-19.92438326 20.82560867 -18.84885948 19.65113218 -17.7734375 18.4765625 C-15.76054737 16.28549864 -13.73714767 14.10478809 -11.70703125 11.9296875 C-8.82753393 8.81334841 -6.04206979 5.63190353 -3.3046875 2.390625 C-2 1 -2 1 0 0 Z " fill="#D4D4D4" transform="translate(222,222)"/>
<path d="M0 0 C8.64863868 -0.30949403 17.19216617 0.21233266 25.8125 0.875 C26.88556396 0.95347168 27.95862793 1.03194336 29.06420898 1.11279297 C34.92056817 1.5868337 40.35017968 2.3779768 46 4 C46 5.32 46 6.64 46 8 C42.77797567 9.61101217 39.32805587 8.90015586 35.8125 8.6875 C34.98693604 8.64044922 34.16137207 8.59339844 33.31079102 8.54492188 C26.34548489 8.1261116 19.39064372 7.58494614 12.4375 7 C11.43243408 6.91709717 10.42736816 6.83419434 9.3918457 6.7487793 C8.45687256 6.66668213 7.52189941 6.58458496 6.55859375 6.5 C5.31033813 6.39171875 5.31033813 6.39171875 4.03686523 6.28125 C2 6 2 6 0 5 C0 3.35 0 1.7 0 0 Z " fill="#D7D7D7" transform="translate(71,282)"/>
<path d="M0 0 C3.0625 2.5 3.0625 2.5 5 5 C3.68 5.99 2.36 6.98 1 8 C0.01 7.34 -0.98 6.68 -2 6 C-5.60867549 6.15827178 -5.60867549 6.15827178 -9 7 C-10.38125018 9.76250036 -10.19079306 11.94731099 -10 15 C-8.07306126 17.38057281 -8.07306126 17.38057281 -4.625 17.125 C-3.42875 17.08375 -2.2325 17.0425 -1 17 C0.32 17 1.64 17 3 17 C3.66 17.99 4.32 18.98 5 20 C1.79646029 23.20353971 -1.39957087 23.71579601 -5.75 24.06640625 C-9.13215494 23.9665857 -11.24313519 22.90354951 -14 21 C-17.39371266 17.24093549 -17.56381057 14.39867144 -17.42578125 9.48046875 C-16.72867414 5.41934018 -15.02589869 3.74441974 -12 1 C-7.95177233 -0.34940922 -4.22757949 -0.69595879 0 0 Z " fill="#D2D2D2" transform="translate(372,272)"/>
<path d="M0 0 C3.94230189 0.35170611 6.91861637 1.83818115 10.3515625 3.73046875 C11.36863281 4.28669922 12.38570312 4.84292969 13.43359375 5.41601562 C14.48675781 6.00060547 15.53992188 6.58519531 16.625 7.1875 C17.65496094 7.75275391 18.68492188 8.31800781 19.74609375 8.90039062 C21.8091396 10.03311957 23.86939379 11.17094853 25.92675781 12.31396484 C28.00190059 13.45242497 30.09036928 14.56687855 32.19042969 15.65869141 C33.18719727 16.17995605 34.18396484 16.7012207 35.2109375 17.23828125 C36.1086084 17.69887939 37.0062793 18.15947754 37.93115234 18.6340332 C40 20 40 20 41 23 C40.67 23.66 40.34 24.32 40 25 C33.11690815 24.64823978 28.15606025 21.68219054 22.25 18.3125 C21.32445313 17.79494141 20.39890625 17.27738281 19.4453125 16.74414062 C17.57627623 15.69899012 15.71101428 14.64706109 13.84960938 13.58837891 C11.88944537 12.49577892 9.91003045 11.43724023 7.91601562 10.40771484 C6.92794922 9.89547363 5.93988281 9.38323242 4.921875 8.85546875 C3.57754395 8.1752063 3.57754395 8.1752063 2.20605469 7.48120117 C-0.20540548 5.86208554 -0.98099267 4.68082288 -2 2 C-1.34 1.34 -0.68 0.68 0 0 Z " fill="#D5D5D5" transform="translate(82,250)"/>
<path d="M0 0 C2.27807617 -0.00097656 2.27807617 -0.00097656 5 1 C6.46686006 3.71607821 7.52597167 6.13413819 8.55078125 9.015625 C8.85445114 9.82360535 9.15812103 10.63158569 9.47099304 11.46405029 C10.10973799 13.17546967 10.73871597 14.89056126 11.35864258 16.60888672 C12.306553 19.2335335 13.28413352 21.84551887 14.26757812 24.45703125 C14.88459579 26.12173595 15.49988751 27.78708159 16.11328125 29.453125 C16.40382889 30.23351135 16.69437653 31.01389771 16.99372864 31.81793213 C18.37299404 35.66701309 19.38141869 38.84413625 19 43 C17.02 43.495 17.02 43.495 15 44 C10.94176245 36.4664638 7.80254795 28.6676868 4.86816406 20.64794922 C4.11692798 18.60302734 3.34791646 16.56534228 2.578125 14.52734375 C2.09526692 13.21915079 1.6134566 11.91057052 1.1328125 10.6015625 C0.69855957 9.42932129 0.26430664 8.25708008 -0.18310547 7.04931641 C-0.97473865 4.09429596 -1.1135519 2.79117751 0 0 Z " fill="#D7D7D7" transform="translate(128,210)"/>
<path d="M0 0 C1.67542976 0.28604898 3.34385343 0.61781233 5 1 C4.3702379 5.92154523 2.91410249 10.31748435 1.12890625 14.91796875 C0.84651596 15.65702957 0.56412567 16.39609039 0.2731781 17.157547 C-0.32176365 18.71080815 -0.91946418 20.26301514 -1.51977539 21.81420898 C-2.43765878 24.1879106 -3.34542969 26.56529939 -4.25195312 28.94335938 C-4.83273928 30.4559574 -5.41409971 31.96833507 -5.99609375 33.48046875 C-6.26699326 34.18987106 -6.53789276 34.89927338 -6.81700134 35.63017273 C-8.00070691 38.67645641 -9.17850434 41.2677565 -11 44 C-12.32 44 -13.64 44 -15 44 C-16.11619347 40.65141959 -15.9444618 40.14823536 -14.75244141 37.00341797 C-14.45528229 36.20604218 -14.15812317 35.40866638 -13.85195923 34.58712769 C-13.52182831 33.73079742 -13.19169739 32.87446716 -12.8515625 31.9921875 C-12.51957855 31.11096222 -12.1875946 30.22973694 -11.84555054 29.32180786 C-11.14192578 27.45915282 -10.43384712 25.59817512 -9.72167969 23.73876953 C-8.62795308 20.8827114 -7.54717699 18.02202204 -6.46875 15.16015625 C-5.78460314 13.35388281 -5.0997319 11.54788353 -4.4140625 9.7421875 C-4.08798004 8.88180878 -3.76189758 8.02143005 -3.42593384 7.13497925 C-3.1224704 6.34390778 -2.81900696 5.5528363 -2.50634766 4.73779297 C-2.23907867 4.03846649 -1.97180969 3.33914001 -1.69644165 2.61862183 C-1 1 -1 1 0 0 Z " fill="#D6D6D6" transform="translate(190,210)"/>
<path d="M0 0 C0.495 2.475 0.495 2.475 1 5 C-7.05350977 6.42835834 -15.1092409 7.37150457 -23.25 8.125 C-24.17184082 8.21249512 -25.09368164 8.29999023 -26.04345703 8.39013672 C-31.72042791 8.89622722 -37.30073243 9.08141811 -43 9 C-43.38218767 7.34385343 -43.71395102 5.67542976 -44 4 C-42.10368179 2.10368179 -38.83042025 2.48799683 -36.2890625 2.24609375 C-35.26490738 2.14833397 -35.26490738 2.14833397 -34.22006226 2.04859924 C-32.76589581 1.91110332 -31.31150961 1.77591549 -29.85693359 1.64282227 C-27.66821107 1.44147512 -25.48063123 1.23009533 -23.29296875 1.01757812 C-15.5176395 0.28225394 -7.81753178 -0.21686265 0 0 Z " fill="#D9D9D9" transform="translate(249,282)"/>
<path d="M0 0 C0.52851563 0.23074219 1.05703125 0.46148437 1.6015625 0.69921875 C1.45703125 2.98828125 1.45703125 2.98828125 0.6015625 5.69921875 C-1.84765625 7.47265625 -1.84765625 7.47265625 -5.0859375 9.07421875 C-6.26027344 9.6671875 -7.43460938 10.26015625 -8.64453125 10.87109375 C-9.89553357 11.48108392 -11.14683783 12.09045521 -12.3984375 12.69921875 C-14.22164894 13.60671269 -16.04230947 14.51917737 -17.86279297 15.43212891 C-19.62488403 16.31245168 -21.39249494 17.18169749 -23.16015625 18.05078125 C-26.69616535 19.85077623 -30.08296272 21.82604661 -33.43359375 23.94921875 C-36.04796 24.94714781 -37.74896392 24.43390813 -40.3984375 23.69921875 C-40.17236328 21.87011719 -40.17236328 21.87011719 -39.3984375 19.69921875 C-37.50341797 18.27050781 -37.50341797 18.27050781 -35.015625 16.96484375 C-34.10216309 16.47653076 -33.18870117 15.98821777 -32.24755859 15.48510742 C-30.77536865 14.72484253 -30.77536865 14.72484253 -29.2734375 13.94921875 C-28.28037598 13.42497314 -27.28731445 12.90072754 -26.26416016 12.3605957 C-24.25665827 11.30105379 -22.24673651 10.24608362 -20.234375 9.19580078 C-17.71493048 7.86623855 -15.22397952 6.49976291 -12.7421875 5.1015625 C-12.0630127 4.72290039 -11.38383789 4.34423828 -10.68408203 3.95410156 C-8.88623521 2.94973326 -7.09144919 1.93989162 -5.296875 0.9296875 C-2.3984375 -0.30078125 -2.3984375 -0.30078125 0 0 Z " fill="#D4D4D4" transform="translate(239.3984375,250.30078125)"/>
<path d="M0 0 C2.8125 1.5625 2.8125 1.5625 5 4 C5.8125 7.75 5.8125 7.75 6 11 C0.06 11.495 0.06 11.495 -6 12 C-1.28941438 13.3721042 -1.28941438 13.3721042 2 12 C2.99 13.32 3.98 14.64 5 16 C1.90684421 18.41652796 -0.21360273 19.25629263 -4.0625 18.875 C-7.441898 18.25013018 -9.80931209 17.80408052 -12 15 C-12.89966673 11.9540695 -13.24466729 9.16955358 -13 6 C-9.78581864 0.48997481 -6.21300321 -0.62130032 0 0 Z M-6 5 C-6 5.66 -6 6.32 -6 7 C-4.02 7 -2.04 7 0 7 C-0.33 6.34 -0.66 5.68 -1 5 C-2.65 5 -4.3 5 -6 5 Z " fill="#CFCFCF" transform="translate(424,277)"/>
<path d="M0 0 C1.75 1.1875 1.75 1.1875 3.75 4.1875 C3.75 6.1675 3.75 8.1475 3.75 10.1875 C-0.21 10.1875 -4.17 10.1875 -8.25 10.1875 C-8.25 10.8475 -8.25 11.5075 -8.25 12.1875 C-7.3425 12.1875 -6.435 12.1875 -5.5 12.1875 C-3.08333333 12.1875 -0.66666667 12.1875 1.75 12.1875 C2.08 13.1775 2.41 14.1675 2.75 15.1875 C-0.3219196 17.58743719 -2.48161008 18.45438493 -6.3125 18.125 C-9.08344216 17.63354988 -10.31346007 17.1435661 -12.6875 15.5 C-14.66467073 12.57378732 -15.17925721 10.72463938 -15.25 7.1875 C-14.0803301 3.98629817 -13.17407353 1.8885213 -10.4375 -0.1875 C-6.76928899 -1.23556029 -3.60220493 -1.30079622 0 0 Z M-7.25 4.1875 C-7.58 4.8475 -7.91 5.5075 -8.25 6.1875 C-6.27 6.1875 -4.29 6.1875 -2.25 6.1875 C-2.58 5.5275 -2.91 4.8675 -3.25 4.1875 C-4.57 4.1875 -5.89 4.1875 -7.25 4.1875 Z " fill="#D1D1D1" transform="translate(349.25,277.8125)"/>
<path d="M0 0 C1.98 0 3.96 0 6 0 C6 4.29 6 8.58 6 13 C7.65 12.67 9.3 12.34 11 12 C11.33 8.04 11.66 4.08 12 0 C13.98 0 15.96 0 18 0 C18 5.94 18 11.88 18 18 C5.76710894 19.47870112 5.76710894 19.47870112 1 16 C0 15 0 15 -0.09765625 11.62109375 C-0.09098369 10.22652923 -0.07902532 8.83198257 -0.0625 7.4375 C-0.05798828 6.72658203 -0.05347656 6.01566406 -0.04882812 5.28320312 C-0.03700864 3.52209987 -0.01907263 1.76103964 0 0 Z " fill="#D2D2D2" transform="translate(280,277)"/>
<path d="M0 0 C2.703125 1.5703125 2.703125 1.5703125 5 4 C5.48828125 7.453125 5.48828125 7.453125 5.3125 11.25 C5.24482422 13.14492188 5.24482422 13.14492188 5.17578125 15.078125 C5.11777344 16.04234375 5.05976563 17.0065625 5 18 C3.61167969 17.98066406 3.61167969 17.98066406 2.1953125 17.9609375 C-1.00885888 17.9020429 -1.00885888 17.9020429 -4.125 18.625 C-7 19 -7 19 -9.3125 18.4375 C-11 17 -11 17 -11.9375 14.0625 C-12 11 -12 11 -11 9.25 C-8.16595495 7.47872185 -5.22646792 6.79139779 -2 6 C-4.64 6 -7.28 6 -10 6 C-10.33 4.68 -10.66 3.36 -11 2 C-7.34148709 -0.34144827 -4.27169964 -0.44965259 0 0 Z M-5 11 C-5.33 11.99 -5.66 12.98 -6 14 C-4.35 14 -2.7 14 -1 14 C-1 13.01 -1 12.02 -1 11 C-2.32 11 -3.64 11 -5 11 Z " fill="#D4D4D4" transform="translate(390,277)"/>
<path d="M0 0 C1.98 0 3.96 0 6 0 C6 5.94 6 11.88 6 18 C9.63 18 13.26 18 17 18 C17 19.65 17 21.3 17 23 C11.39 23 5.78 23 0 23 C0 15.41 0 7.82 0 0 Z " fill="#DCDCDC" transform="translate(261,272)"/>
<path d="M0 0 C3.63 0 7.26 0 11 0 C11 1.98 11 3.96 11 6 C9.68 6.33 8.36 6.66 7 7 C6.67 10.63 6.34 14.26 6 18 C4.02 18 2.04 18 0 18 C0 12.06 0 6.12 0 0 Z " fill="#D5D5D5" transform="translate(399,277)"/>
</svg>
